<svg xmlns="http://www.w3.org/2000/svg" width="113.656" height="200" viewBox="0 0 113.656 200"><path d="M6.257,0A84.482,84.482,0,0,0,0,32.237C0,69.317,22.952,99.71,52.149,102.671V185.4c-20.343.788-37.267,6.643-43.835,14.6h97.024c-6.565-7.96-23.49-13.816-43.83-14.6V102.671C90.7,99.71,113.656,69.317,113.656,32.237A84.53,84.53,0,0,0,107.394,0ZM16.573,42.563a3.717,3.717,0,0,1,3.571,3.59c.356,7.588,3.528,15.945,8.294,22.728s11.1,11.9,17.168,13.631a3.717,3.717,0,1,1-2.032,7.147c-8.365-2.382-15.713-8.671-21.218-16.505s-9.2-17.307-9.634-26.652a3.717,3.717,0,0,1,3.852-3.939Z" transform="translate(0)"/></svg>